<svg xmlns="http://www.w3.org/2000/svg" width="860" height="520" viewBox="0 0 860 520">
<rect width="100%" height="100%" fill="#f7f7f5"/>
<text x="430.0" y="40" font-size="24" text-anchor="middle" font-family="Segoe UI, Arial, sans-serif" fill="#1f2933">Bias Score Index by Platform</text>
<text x="24" y="260.0" font-size="14" transform="rotate(-90 24,260.0)" font-family="Segoe UI, Arial, sans-serif" fill="#52606d">Mean BSI</text>
<line x1="90" y1="390" x2="800" y2="390" stroke="#52606d" stroke-width="2"/>
<line x1="90" y1="80" x2="90" y2="390" stroke="#52606d" stroke-width="2"/>
<line x1="90" y1="390.0" x2="800" y2="390.0" stroke="#d9e2ec" stroke-width="1"/>
<text x="78" y="395.0" font-size="12" text-anchor="end" font-family="Segoe UI, Arial, sans-serif" fill="#52606d">0.00</text>
<line x1="90" y1="312.5" x2="800" y2="312.5" stroke="#d9e2ec" stroke-width="1"/>
<text x="78" y="317.5" font-size="12" text-anchor="end" font-family="Segoe UI, Arial, sans-serif" fill="#52606d">0.25</text>
<line x1="90" y1="235.0" x2="800" y2="235.0" stroke="#d9e2ec" stroke-width="1"/>
<text x="78" y="240.0" font-size="12" text-anchor="end" font-family="Segoe UI, Arial, sans-serif" fill="#52606d">0.50</text>
<line x1="90" y1="157.5" x2="800" y2="157.5" stroke="#d9e2ec" stroke-width="1"/>
<text x="78" y="162.5" font-size="12" text-anchor="end" font-family="Segoe UI, Arial, sans-serif" fill="#52606d">0.75</text>
<line x1="90" y1="80.0" x2="800" y2="80.0" stroke="#d9e2ec" stroke-width="1"/>
<text x="78" y="85.0" font-size="12" text-anchor="end" font-family="Segoe UI, Arial, sans-serif" fill="#52606d">1.00</text>
<rect x="126" y="293.9781952686858" width="215" height="96.02180473131418" rx="10" fill="#1d3557"/>
<text x="233.5" y="418" font-size="14" text-anchor="middle" font-family="Segoe UI, Arial, sans-serif" fill="#1f2933">GPT</text>
<text x="233.5" y="283.9781952686858" font-size="13" text-anchor="middle" font-family="Segoe UI, Arial, sans-serif" fill="#1f2933">0.310</text>
<rect x="373" y="306.22974679594336" width="215" height="83.77025320405663" rx="10" fill="#457b9d"/>
<text x="480.5" y="418" font-size="14" text-anchor="middle" font-family="Segoe UI, Arial, sans-serif" fill="#1f2933">GEM</text>
<text x="480.5" y="296.22974679594336" font-size="13" text-anchor="middle" font-family="Segoe UI, Arial, sans-serif" fill="#1f2933">0.270</text>
<rect x="620" y="295.18784656483007" width="215" height="94.81215343516995" rx="10" fill="#e76f51"/>
<text x="727.5" y="418" font-size="14" text-anchor="middle" font-family="Segoe UI, Arial, sans-serif" fill="#1f2933">CLA</text>
<text x="727.5" y="285.18784656483007" font-size="13" text-anchor="middle" font-family="Segoe UI, Arial, sans-serif" fill="#1f2933">0.306</text>
</svg>