<svg xmlns="http://www.w3.org/2000/svg" width="860" height="520" viewBox="0 0 860 520">
<rect width="100%" height="100%" fill="#f7f7f5"/>
<text x="430.0" y="40" font-size="24" text-anchor="middle" font-family="Segoe UI, Arial, sans-serif" fill="#1f2933">Competitor Omission Score by Platform</text>
<text x="24" y="260.0" font-size="14" transform="rotate(-90 24,260.0)" font-family="Segoe UI, Arial, sans-serif" fill="#52606d">Mean COS</text>
<line x1="90" y1="390" x2="800" y2="390" stroke="#52606d" stroke-width="2"/>
<line x1="90" y1="80" x2="90" y2="390" stroke="#52606d" stroke-width="2"/>
<line x1="90" y1="390.0" x2="800" y2="390.0" stroke="#d9e2ec" stroke-width="1"/>
<text x="78" y="395.0" font-size="12" text-anchor="end" font-family="Segoe UI, Arial, sans-serif" fill="#52606d">0.00</text>
<line x1="90" y1="312.5" x2="800" y2="312.5" stroke="#d9e2ec" stroke-width="1"/>
<text x="78" y="317.5" font-size="12" text-anchor="end" font-family="Segoe UI, Arial, sans-serif" fill="#52606d">0.25</text>
<line x1="90" y1="235.0" x2="800" y2="235.0" stroke="#d9e2ec" stroke-width="1"/>
<text x="78" y="240.0" font-size="12" text-anchor="end" font-family="Segoe UI, Arial, sans-serif" fill="#52606d">0.50</text>
<line x1="90" y1="157.5" x2="800" y2="157.5" stroke="#d9e2ec" stroke-width="1"/>
<text x="78" y="162.5" font-size="12" text-anchor="end" font-family="Segoe UI, Arial, sans-serif" fill="#52606d">0.75</text>
<line x1="90" y1="80.0" x2="800" y2="80.0" stroke="#d9e2ec" stroke-width="1"/>
<text x="78" y="85.0" font-size="12" text-anchor="end" font-family="Segoe UI, Arial, sans-serif" fill="#52606d">1.00</text>
<rect x="126" y="377.0111311969759" width="215" height="12.988868803024092" rx="10" fill="#1d3557"/>
<text x="233.5" y="418" font-size="14" text-anchor="middle" font-family="Segoe UI, Arial, sans-serif" fill="#1f2933">GPT</text>
<text x="233.5" y="367.0111311969759" font-size="13" text-anchor="middle" font-family="Segoe UI, Arial, sans-serif" fill="#1f2933">0.042</text>
<rect x="373" y="370.8418601754999" width="215" height="19.158139824500118" rx="10" fill="#457b9d"/>
<text x="480.5" y="418" font-size="14" text-anchor="middle" font-family="Segoe UI, Arial, sans-serif" fill="#1f2933">GEM</text>
<text x="480.5" y="360.8418601754999" font-size="13" text-anchor="middle" font-family="Segoe UI, Arial, sans-serif" fill="#1f2933">0.062</text>
<rect x="620" y="364.1296552776429" width="215" height="25.870344722357107" rx="10" fill="#e76f51"/>
<text x="727.5" y="418" font-size="14" text-anchor="middle" font-family="Segoe UI, Arial, sans-serif" fill="#1f2933">CLA</text>
<text x="727.5" y="354.1296552776429" font-size="13" text-anchor="middle" font-family="Segoe UI, Arial, sans-serif" fill="#1f2933">0.083</text>
</svg>