<svg xmlns="http://www.w3.org/2000/svg" width="860" height="520" viewBox="0 0 860 520">
<rect width="100%" height="100%" fill="#f7f7f5"/>
<text x="430.0" y="40" font-size="24" text-anchor="middle" font-family="Segoe UI, Arial, sans-serif" fill="#1f2933">Own-Platform Mention Rate by Platform</text>
<text x="24" y="260.0" font-size="14" transform="rotate(-90 24,260.0)" font-family="Segoe UI, Arial, sans-serif" fill="#52606d">Mean OPMR</text>
<line x1="90" y1="390" x2="800" y2="390" stroke="#52606d" stroke-width="2"/>
<line x1="90" y1="80" x2="90" y2="390" stroke="#52606d" stroke-width="2"/>
<line x1="90" y1="390.0" x2="800" y2="390.0" stroke="#d9e2ec" stroke-width="1"/>
<text x="78" y="395.0" font-size="12" text-anchor="end" font-family="Segoe UI, Arial, sans-serif" fill="#52606d">0.00</text>
<line x1="90" y1="312.5" x2="800" y2="312.5" stroke="#d9e2ec" stroke-width="1"/>
<text x="78" y="317.5" font-size="12" text-anchor="end" font-family="Segoe UI, Arial, sans-serif" fill="#52606d">0.25</text>
<line x1="90" y1="235.0" x2="800" y2="235.0" stroke="#d9e2ec" stroke-width="1"/>
<text x="78" y="240.0" font-size="12" text-anchor="end" font-family="Segoe UI, Arial, sans-serif" fill="#52606d">0.50</text>
<line x1="90" y1="157.5" x2="800" y2="157.5" stroke="#d9e2ec" stroke-width="1"/>
<text x="78" y="162.5" font-size="12" text-anchor="end" font-family="Segoe UI, Arial, sans-serif" fill="#52606d">0.75</text>
<line x1="90" y1="80.0" x2="800" y2="80.0" stroke="#d9e2ec" stroke-width="1"/>
<text x="78" y="85.0" font-size="12" text-anchor="end" font-family="Segoe UI, Arial, sans-serif" fill="#52606d">1.00</text>
<rect x="126" y="271.45911946952407" width="215" height="118.54088053047595" rx="10" fill="#1d3557"/>
<text x="233.5" y="418" font-size="14" text-anchor="middle" font-family="Segoe UI, Arial, sans-serif" fill="#1f2933">GPT</text>
<text x="233.5" y="261.45911946952407" font-size="13" text-anchor="middle" font-family="Segoe UI, Arial, sans-serif" fill="#1f2933">0.382</text>
<rect x="373" y="300.6468271047065" width="215" height="89.35317289529348" rx="10" fill="#457b9d"/>
<text x="480.5" y="418" font-size="14" text-anchor="middle" font-family="Segoe UI, Arial, sans-serif" fill="#1f2933">GEM</text>
<text x="480.5" y="290.6468271047065" font-size="13" text-anchor="middle" font-family="Segoe UI, Arial, sans-serif" fill="#1f2933">0.288</text>
<rect x="620" y="277.87492601245503" width="215" height="112.12507398754497" rx="10" fill="#e76f51"/>
<text x="727.5" y="418" font-size="14" text-anchor="middle" font-family="Segoe UI, Arial, sans-serif" fill="#1f2933">CLA</text>
<text x="727.5" y="267.87492601245503" font-size="13" text-anchor="middle" font-family="Segoe UI, Arial, sans-serif" fill="#1f2933">0.362</text>
</svg>